<?xml version="1.0" encoding="utf-8"?><!-- Uploaded to: SVG Repo, www.svgrepo.com, Generator: SVG Repo Mixer Tools -->
<svg width="800px" height="800px" viewBox="0 0 40 40" fill="none" xmlns="http://www.w3.org/2000/svg">
<rect width="40" height="40" rx="8" fill="#000000" fill-opacity="0.4"/>
<path d="M19.2487 8.11071L10.8487 11.802C10.5171 11.9478 10.2351 12.1869 10.0371 12.4902C9.83902 12.7935 9.73349 13.1478 9.73334 13.51V19.2953C9.73334 22.8387 11.3181 26.005 14.1107 28.1872L18.9239 31.5836C19.2387 31.8057 19.6146 31.925 20 31.925C20.3854 31.925 20.7613 31.8057 21.0761 31.5836L25.8529 28.2142C28.6819 26.0046 30.2667 22.8382 30.2667 19.2953V13.5105C30.2667 13.1481 30.1613 12.7936 29.9632 12.4901C29.7651 12.1867 29.4831 11.9474 29.1513 11.8016L20.7513 8.11024C20.5145 8.00613 20.2587 7.95236 20 7.95236C19.7413 7.95236 19.4855 8.00659 19.2487 8.11071Z" fill="white"/>
<path d="M24.0068 16.4598C24.3712 16.0954 24.9621 16.0954 25.3265 16.4599V16.4599C25.691 16.8243 25.691 17.4152 25.3265 17.7796L19.9197 23.1864C19.7447 23.3614 19.5074 23.4597 19.2599 23.4597C19.0124 23.4597 18.775 23.3614 18.6 23.1864L15.5266 20.113C15.1621 19.7485 15.1621 19.1576 15.5266 18.7932V18.7932C15.891 18.4287 16.4818 18.4287 16.8463 18.7931L19.2599 21.2063L24.0068 16.4598Z" fill="#B5B5B5"/>
</svg>